<svg xmlns="http://www.w3.org/2000/svg" viewBox="0 0 64 64">
  <rect width="64" height="64" rx="14" fill="#120b1d"/>
  <g fill="none" stroke-linecap="round" stroke-linejoin="round">
    <path stroke="#d8b4fe" stroke-width="4" d="M9 29C9 17 17 8 30 8c12 0 21 8 21 20 0 12-9 21-22 21H18l-9 7 3-13c-2-4-3-8-3-14Z"/>
    <path stroke="#a855f7" stroke-width="2.5" d="M16 25c5-8 19-11 29-3M15 35c8 6 21 7 30 0M23 12c-4 10-3 23 2 34M38 11c4 9 3 18 0 26"/>
    <path stroke="#facc15" stroke-width="5" d="m26 31 6 6 13-15"/>
  </g>
</svg>
